<svg width="128" height="47" viewBox="0 0 128 47" fill="none" xmlns="http://www.w3.org/2000/svg">
<path d="M3.712 46.24C2.496 46.24 1.632 45.6 1.12 44.32C0.64 43.04 0.4 40.992 0.4 38.176C0.4 34.016 0.992 30.064 2.176 26.32C2.464 25.392 2.928 24.72 3.568 24.304C4.24 23.856 5.168 23.632 6.352 23.632C6.992 23.632 7.44 23.712 7.696 23.872C7.952 24.032 8.08 24.336 8.08 24.784C8.08 25.296 7.84 26.448 7.36 28.24C7.04 29.52 6.784 30.64 6.592 31.6C6.4 32.56 6.24 33.744 6.112 35.152C7.168 32.4 8.352 30.16 9.664 28.432C10.976 26.704 12.256 25.472 13.504 24.736C14.784 24 15.952 23.632 17.008 23.632C19.088 23.632 20.128 24.672 20.128 26.752C20.128 27.168 19.984 28.176 19.696 29.776C19.44 31.056 19.312 31.856 19.312 32.176C19.312 33.296 19.712 33.856 20.512 33.856C21.408 33.856 22.56 33.152 23.968 31.744C24.384 31.328 24.816 31.12 25.264 31.12C25.68 31.12 26 31.312 26.224 31.696C26.48 32.048 26.608 32.528 26.608 33.136C26.608 34.32 26.288 35.248 25.648 35.92C24.752 36.848 23.696 37.648 22.48 38.32C21.296 38.96 20.032 39.28 18.688 39.28C16.992 39.28 15.696 38.848 14.8 37.984C13.936 37.12 13.504 35.952 13.504 34.48C13.504 34 13.552 33.52 13.648 33.04C13.712 32.4 13.744 31.968 13.744 31.744C13.744 31.232 13.568 30.976 13.216 30.976C12.736 30.976 12.096 31.52 11.296 32.608C10.528 33.664 9.76 35.072 8.992 36.832C8.224 38.592 7.6 40.448 7.12 42.4C6.768 43.904 6.352 44.928 5.872 45.472C5.424 45.984 4.704 46.24 3.712 46.24ZM43.5558 35.296C43.9718 35.296 44.2918 35.488 44.5157 35.872C44.7718 36.256 44.8998 36.784 44.8998 37.456C44.8998 38.736 44.5958 39.728 43.9878 40.432C42.8038 41.872 41.1238 43.2 38.9478 44.416C36.8038 45.632 34.4998 46.24 32.0358 46.24C28.6758 46.24 26.0678 45.328 24.2118 43.504C22.3558 41.68 21.4277 39.184 21.4277 36.016C21.4277 33.808 21.8918 31.76 22.8198 29.872C23.7478 27.952 25.0278 26.432 26.6598 25.312C28.3238 24.192 30.1958 23.632 32.2758 23.632C34.1318 23.632 35.6198 24.192 36.7398 25.312C37.8598 26.4 38.4198 27.888 38.4198 29.776C38.4198 31.984 37.6198 33.888 36.0198 35.488C34.4518 37.056 31.7798 38.304 28.0038 39.232C28.8038 40.704 30.3238 41.44 32.5638 41.44C34.0038 41.44 35.6358 40.944 37.4598 39.952C39.3158 38.928 40.9158 37.6 42.2598 35.968C42.6438 35.52 43.0758 35.296 43.5558 35.296ZM31.4598 28.336C30.2758 28.336 29.2678 29.024 28.4358 30.4C27.6358 31.776 27.2358 33.44 27.2358 35.392V35.488C29.1238 35.04 30.6118 34.368 31.6998 33.472C32.7878 32.576 33.3318 31.536 33.3318 30.352C33.3318 29.744 33.1558 29.264 32.8038 28.912C32.4838 28.528 32.0358 28.336 31.4598 28.336ZM64.9859 31.408C65.0819 31.376 65.2419 31.36 65.4659 31.36C65.9459 31.36 66.3139 31.52 66.5699 31.84C66.8259 32.16 66.9539 32.592 66.9539 33.136C66.9539 34.128 66.7619 34.912 66.3779 35.488C65.9939 36.032 65.4179 36.432 64.6499 36.688C63.1779 37.168 61.6099 37.408 59.9459 37.408C58.5379 37.408 57.2099 37.216 55.9619 36.832C55.0339 38.336 54.0099 39.888 52.8899 41.488C51.6099 43.312 50.5059 44.56 49.5779 45.232C48.6499 45.904 47.5939 46.24 46.4099 46.24C45.0979 46.24 44.0579 45.728 43.2899 44.704C42.5539 43.68 42.0899 42.064 41.8979 39.856C41.5139 35.376 41.3219 31.456 41.3219 28.096V26.416C41.3539 25.36 41.6419 24.624 42.1859 24.208C42.7299 23.792 43.5459 23.584 44.6339 23.584C45.4659 23.584 46.0739 23.776 46.4579 24.16C46.8739 24.512 47.0819 25.12 47.0819 25.984C47.0819 29.664 47.3059 34.448 47.7539 40.336C49.6739 37.488 51.1139 35.216 52.0739 33.52C51.5939 32.592 51.3539 31.488 51.3539 30.208C51.3539 29.12 51.5939 28.064 52.0739 27.04C52.5539 26.016 53.2099 25.184 54.0419 24.544C54.8739 23.904 55.8179 23.584 56.8739 23.584C57.8019 23.584 58.5539 23.92 59.1299 24.592C59.7059 25.232 59.9939 26.176 59.9939 27.424C59.9939 28.864 59.6099 30.512 58.8419 32.368C60.0579 32.304 61.6739 32.064 63.6899 31.648L64.9859 31.408ZM84.1964 35.296C84.6124 35.296 84.9324 35.488 85.1564 35.872C85.4124 36.256 85.5404 36.784 85.5404 37.456C85.5404 38.736 85.2364 39.728 84.6284 40.432C83.4444 41.872 81.7644 43.2 79.5884 44.416C77.4444 45.632 75.1404 46.24 72.6764 46.24C69.3164 46.24 66.7084 45.328 64.8524 43.504C62.9964 41.68 62.0684 39.184 62.0684 36.016C62.0684 33.808 62.5324 31.76 63.4604 29.872C64.3884 27.952 65.6684 26.432 67.3004 25.312C68.9644 24.192 70.8364 23.632 72.9164 23.632C74.7724 23.632 76.2604 24.192 77.3804 25.312C78.5004 26.4 79.0604 27.888 79.0604 29.776C79.0604 31.984 78.2604 33.888 76.6604 35.488C75.0924 37.056 72.4204 38.304 68.6444 39.232C69.4444 40.704 70.9644 41.44 73.2044 41.44C74.6444 41.44 76.2764 40.944 78.1004 39.952C79.9564 38.928 81.5564 37.6 82.9004 35.968C83.2844 35.52 83.7164 35.296 84.1964 35.296ZM72.1004 28.336C70.9164 28.336 69.9084 29.024 69.0764 30.4C68.2764 31.776 67.8764 33.44 67.8764 35.392V35.488C69.7644 35.04 71.2524 34.368 72.3404 33.472C73.4284 32.576 73.9724 31.536 73.9724 30.352C73.9724 29.744 73.7964 29.264 73.4444 28.912C73.1244 28.528 72.6764 28.336 72.1004 28.336ZM99.8241 35.296C100.24 35.296 100.56 35.488 100.784 35.872C101.04 36.256 101.168 36.784 101.168 37.456C101.168 38.736 100.864 39.728 100.256 40.432C98.8801 42.128 97.3761 43.52 95.7441 44.608C94.1441 45.696 92.3201 46.24 90.2721 46.24C87.4561 46.24 85.3601 44.96 83.9841 42.4C82.6401 39.84 81.9681 36.528 81.9681 32.464C81.9681 28.56 82.4641 24.112 83.4561 19.12C84.4801 14.128 85.9681 9.84 87.9201 6.256C89.9041 2.672 92.2561 0.879997 94.9761 0.879997C96.5121 0.879997 97.7121 1.6 98.5761 3.04C99.4721 4.448 99.9201 6.48 99.9201 9.136C99.9201 12.944 98.8641 17.36 96.7521 22.384C94.6401 27.408 91.7761 32.384 88.1601 37.312C88.3841 38.624 88.7521 39.568 89.2641 40.144C89.7761 40.688 90.4481 40.96 91.2801 40.96C92.5921 40.96 93.7441 40.592 94.7361 39.856C95.7281 39.088 96.9921 37.792 98.5281 35.968C98.9121 35.52 99.3441 35.296 99.8241 35.296ZM93.9201 5.632C93.1841 5.632 92.3521 6.96 91.4241 9.616C90.4961 12.272 89.6801 15.568 88.9761 19.504C88.2721 23.44 87.8881 27.216 87.8241 30.832C90.0961 27.088 91.9041 23.344 93.2481 19.6C94.5921 15.824 95.2641 12.384 95.2641 9.28C95.2641 6.848 94.8161 5.632 93.9201 5.632ZM103.576 20.464C102.232 20.464 101.224 20.16 100.552 19.552C99.8804 18.912 99.5444 18.032 99.5444 16.912C99.5444 15.792 99.9764 14.864 100.84 14.128C101.736 13.36 102.84 12.976 104.152 12.976C105.336 12.976 106.296 13.264 107.032 13.84C107.768 14.416 108.136 15.232 108.136 16.288C108.136 17.568 107.72 18.592 106.888 19.36C106.056 20.096 104.952 20.464 103.576 20.464ZM103.192 46.24C101.112 46.24 99.5924 45.504 98.6324 44.032C97.7044 42.56 97.2404 40.608 97.2404 38.176C97.2404 36.736 97.4164 34.896 97.7684 32.656C98.1524 30.384 98.6324 28.272 99.2084 26.32C99.4964 25.296 99.8804 24.592 100.36 24.208C100.84 23.824 101.608 23.632 102.664 23.632C104.296 23.632 105.112 24.176 105.112 25.264C105.112 26.064 104.808 27.92 104.2 30.832C103.432 34.352 103.048 36.736 103.048 37.984C103.048 38.944 103.176 39.68 103.432 40.192C103.688 40.704 104.12 40.96 104.728 40.96C105.304 40.96 106.024 40.56 106.888 39.76C107.752 38.96 108.904 37.696 110.344 35.968C110.728 35.52 111.16 35.296 111.64 35.296C112.056 35.296 112.376 35.488 112.6 35.872C112.856 36.256 112.984 36.784 112.984 37.456C112.984 38.736 112.68 39.728 112.072 40.432C108.904 44.304 105.944 46.24 103.192 46.24ZM117.213 46.24C115.325 46.24 113.709 45.776 112.365 44.848C111.053 43.888 110.061 42.64 109.389 41.104C108.717 39.568 108.381 37.92 108.381 36.16C108.381 33.728 108.829 31.568 109.725 29.68C110.653 27.76 111.901 26.272 113.469 25.216C115.037 24.128 116.797 23.584 118.749 23.584C120.637 23.584 122.253 24.064 123.597 25.024C124.941 25.952 125.949 27.184 126.621 28.72C127.293 30.256 127.629 31.904 127.629 33.664C127.629 36.096 127.165 38.272 126.237 40.192C125.309 42.08 124.045 43.568 122.445 44.656C120.877 45.712 119.133 46.24 117.213 46.24ZM117.741 41.056C118.829 41.056 119.741 40.464 120.477 39.28C121.245 38.096 121.629 36.368 121.629 34.096C121.629 32.336 121.309 31.008 120.669 30.112C120.029 29.216 119.261 28.768 118.365 28.768C117.213 28.768 116.253 29.36 115.485 30.544C114.749 31.696 114.381 33.424 114.381 35.728C114.381 37.552 114.701 38.896 115.341 39.76C115.981 40.624 116.781 41.056 117.741 41.056Z" fill="black"/>
</svg>
